<svg width="30" height="30" viewBox="0 0 30 30" fill="none" xmlns="http://www.w3.org/2000/svg">
<path fill-rule="evenodd" clip-rule="evenodd" d="M15 22.5C19.1422 22.5 22.5 19.1422 22.5 15C22.5 10.8578 19.1422 7.5 15 7.5C10.8578 7.5 7.5 10.8578 7.5 15C7.5 19.1422 10.8578 22.5 15 22.5ZM15 19.5C17.4851 19.5 19.5 17.4853 19.5 15C19.5 12.5147 17.4851 10.5 15 10.5C12.5149 10.5 10.5 12.5147 10.5 15C10.5 17.4853 12.5149 19.5 15 19.5Z" fill="white"/>
<path d="M22.7864 8.64221C23.6975 8.64221 24.4362 7.90356 24.4362 6.99225C24.4362 6.08093 23.6975 5.34229 22.7864 5.34229C21.8749 5.34229 21.1362 6.08093 21.1362 6.99225C21.1362 7.90356 21.8749 8.64221 22.7864 8.64221Z" fill="white"/>
<path fill-rule="evenodd" clip-rule="evenodd" d="M7.5 0C3.35779 0 0 3.35779 0 7.5V22.5C0 26.6422 3.35779 30 7.5 30H22.5C26.6422 30 30 26.6422 30 22.5V7.5C30 3.35779 26.6422 0 22.5 0H7.5ZM22.5 3H7.5C5.01489 3 3 5.01471 3 7.5V22.5C3 24.9853 5.01489 27 7.5 27H22.5C24.9851 27 27 24.9853 27 22.5V7.5C27 5.01471 24.9851 3 22.5 3Z" fill="white"/>
</svg>
