<svg width="30" height="30" viewBox="0 0 30 30" fill="none" xmlns="http://www.w3.org/2000/svg">
<path fill-rule="evenodd" clip-rule="evenodd" d="M6.66661 0C2.98488 0 0 2.98475 0 6.66661V23.3334C0 27.0152 2.98488 30 6.66661 30H23.3334C27.0151 30 30 27.0152 30 23.3334V6.66661C30 2.98475 27.0151 0 23.3334 0H6.66661ZM5.35714 5.78574C5.35714 4.3655 6.50835 3.21429 7.92847 3.21429C9.34858 3.21429 10.4998 4.3655 10.4998 5.78574C10.4998 7.20585 9.34858 8.35719 7.92847 8.35719C6.50835 8.35719 5.35714 7.20585 5.35714 5.78574ZM5.81229 10.7143H10.098V25.7143H5.81229V10.7143ZM12.2409 10.7139H16.5266V12.8568C16.5266 11.7853 18.5347 10.7139 19.7409 10.7139C22.6996 10.7139 25.098 13.1123 25.098 16.071V25.7139H20.8123V17.1425C20.8123 15.9589 19.8528 14.9996 18.6694 14.9996C17.486 14.9996 16.5266 15.9589 16.5266 17.1425V25.7139H12.2409V10.7139Z" fill="white"/>
</svg>
